<svg xmlns="http://www.w3.org/2000/svg" xmlns:xlink="http://www.w3.org/1999/xlink" width="500" zoomAndPan="magnify" viewBox="0 0 375 374.999991" height="500" preserveAspectRatio="xMidYMid meet" version="1.0"><defs><g/><clipPath id="520bbe0d7b"><path d="M 90 171 L 122 171 L 122 227.890625 L 90 227.890625 Z M 90 171 " clip-rule="nonzero"/></clipPath><clipPath id="c239322b1e"><path d="M 80 118.390625 L 108 118.390625 L 108 136 L 80 136 Z M 80 118.390625 " clip-rule="nonzero"/></clipPath></defs><rect x="-37.5" width="450" fill="#ffffff" y="-37.499999" height="449.999989" fill-opacity="1"/><rect x="-37.5" width="450" fill="#ffffff" y="-37.499999" height="449.999989" fill-opacity="1"/><g clip-path="url(#520bbe0d7b)"><path fill="#ffba08" d="M 119.46875 176.316406 C 119.425781 176.214844 119.378906 176.109375 119.335938 176.007812 C 118.675781 174.570312 117.792969 173.246094 116.980469 171.882812 C 116.796875 173.347656 116.523438 174.785156 116.164062 176.183594 C 114.421875 182.953125 110.703125 188.921875 105.65625 193.445312 C 104.472656 194.386719 103.277344 195.304688 102.089844 196.242188 C 101.40625 196.777344 100.730469 197.316406 100.066406 197.875 C 98.238281 199.402344 96.589844 201.054688 95.195312 202.871094 C 92.652344 206.175781 90.9375 210.023438 90.460938 214.664062 C 90.042969 218.769531 90.710938 222.660156 93.039062 226.085938 C 93.359375 226.558594 93.792969 226.949219 94.296875 227.523438 C 94.433594 226.988281 94.53125 226.726562 94.570312 226.449219 C 95.207031 221.550781 97.523438 217.691406 101.25 214.960938 C 104.0625 212.894531 107.140625 211.242188 110.09375 209.40625 C 121.398438 202.371094 124.402344 187.859375 119.46875 176.316406 Z M 119.46875 176.316406 " fill-opacity="1" fill-rule="evenodd"/></g><path fill="#cc0000" d="M 110.152344 158.882812 C 110.078125 157.816406 109.949219 156.746094 109.761719 155.671875 C 109.75 155.601562 109.734375 155.523438 109.722656 155.445312 C 109.554688 154.5 109.339844 153.5625 109.082031 152.613281 C 108.632812 150.976562 108.050781 149.339844 107.335938 147.703125 C 107.117188 147.203125 106.886719 146.703125 106.644531 146.199219 C 106.496094 145.886719 106.335938 145.574219 106.171875 145.261719 C 105.871094 144.675781 105.550781 144.089844 105.214844 143.503906 C 103.554688 140.625 101.515625 138.136719 99.101562 136.097656 C 99.019531 136.023438 98.933594 135.949219 98.847656 135.878906 C 98.804688 135.839844 98.753906 135.804688 98.710938 135.765625 C 98.589844 135.664062 98.46875 135.570312 98.339844 135.476562 C 97.15625 134.5625 95.808594 133.765625 94.292969 133.101562 C 92.816406 132.453125 91.265625 132.171875 89.6875 132.292969 C 89.582031 132.296875 89.484375 132.308594 89.382812 132.320312 C 89.378906 132.320312 89.378906 132.320312 89.371094 132.320312 C 89.230469 132.335938 89.082031 132.355469 88.9375 132.378906 C 88.472656 132.449219 88.011719 132.554688 87.550781 132.695312 C 87.199219 132.804688 86.863281 132.925781 86.546875 133.074219 C 84.941406 133.804688 83.808594 135.023438 83.332031 136.941406 C 80.78125 136.964844 78.847656 138.003906 77.355469 140.144531 C 78.09375 140.042969 78.71875 139.855469 79.328125 139.894531 C 79.835938 139.925781 80.347656 139.957031 80.859375 139.996094 C 81.710938 140.0625 82.558594 140.160156 83.378906 140.363281 C 84.679688 140.679688 84.988281 141.59375 84.300781 142.734375 C 83.972656 143.28125 83.613281 143.808594 83.25 144.335938 C 82.734375 145.074219 82.210938 145.8125 81.738281 146.574219 C 80.796875 148.105469 80.101562 149.738281 80.570312 151.601562 C 80.664062 151.964844 80.800781 152.347656 81.019531 152.644531 C 81.832031 153.746094 82.726562 154.371094 83.972656 152.941406 C 84.847656 151.933594 85.625 150.886719 86.285156 149.792969 C 87.804688 147.28125 88.683594 144.511719 88.632812 141.378906 C 88.613281 140.535156 89.023438 140.03125 89.675781 140.019531 C 89.902344 140.015625 90.160156 140.070312 90.433594 140.191406 C 90.449219 140.195312 90.460938 140.203125 90.472656 140.207031 C 90.476562 140.210938 90.476562 140.214844 90.480469 140.214844 C 90.507812 140.230469 90.53125 140.246094 90.550781 140.269531 C 90.558594 140.269531 90.5625 140.273438 90.566406 140.28125 C 92.351562 141.632812 93.574219 143.6875 93.828125 146.035156 C 93.863281 146.332031 93.878906 146.636719 93.878906 146.945312 C 93.800781 147.796875 93.664062 148.648438 93.480469 149.5 C 93.457031 149.617188 93.429688 149.734375 93.402344 149.851562 C 93.054688 151.355469 92.554688 152.871094 91.90625 154.382812 C 91.890625 154.417969 91.875 154.460938 91.859375 154.492188 C 91.851562 154.515625 91.839844 154.53125 91.832031 154.554688 C 91.707031 154.847656 91.574219 155.136719 91.4375 155.417969 C 91.292969 155.726562 91.140625 156.027344 90.988281 156.328125 C 90.625 157.027344 90.230469 157.710938 89.820312 158.375 C 89.492188 158.90625 89.144531 159.425781 88.789062 159.9375 C 88.617188 160.1875 88.4375 160.4375 88.257812 160.683594 C 87.09375 162.265625 85.816406 163.765625 84.46875 165.214844 C 83.90625 165.824219 83.332031 166.417969 82.753906 167.011719 C 82.496094 167.277344 82.238281 167.535156 81.976562 167.796875 C 79.480469 170.308594 76.890625 172.730469 74.519531 175.351562 C 69.601562 180.800781 66.914062 187.191406 67.179688 194.640625 C 67.304688 198.105469 68.105469 201.40625 69.335938 204.589844 C 69.730469 205.617188 70.171875 206.632812 70.648438 207.632812 C 72.863281 212.285156 75.828125 216.390625 79.734375 219.789062 C 80.011719 220.027344 80.351562 220.203125 80.664062 220.40625 C 80.582031 219.855469 80.328125 219.5 80.136719 219.109375 C 78.945312 216.675781 77.5 214.328125 76.644531 211.78125 C 75.582031 208.617188 75.121094 205.464844 75.414062 202.394531 C 75.6875 199.460938 76.648438 196.605469 78.417969 193.871094 C 80.175781 191.15625 82.347656 188.679688 84.539062 186.285156 C 86.859375 183.753906 89.316406 181.363281 91.359375 178.617188 C 91.90625 177.875 92.425781 177.113281 92.90625 176.316406 C 93.03125 176.113281 93.148438 175.90625 93.269531 175.695312 C 93.503906 175.277344 93.757812 174.875 94.003906 174.46875 C 94.128906 174.523438 94.25 174.574219 94.375 174.628906 C 94.46875 175.460938 94.515625 176.28125 94.515625 177.085938 C 94.527344 179.171875 94.242188 181.167969 93.726562 183.089844 C 92.757812 186.6875 90.964844 190.027344 88.738281 193.238281 C 88.734375 193.242188 88.734375 193.242188 88.730469 193.242188 C 88.386719 193.75 88.019531 194.25 87.652344 194.746094 C 87.949219 194.699219 88.199219 194.621094 88.40625 194.476562 C 90.503906 193.035156 92.679688 191.691406 94.664062 190.105469 C 96.765625 188.425781 98.769531 186.636719 100.582031 184.679688 C 101.113281 184.105469 101.628906 183.519531 102.125 182.914062 C 102.4375 182.527344 102.746094 182.136719 103.050781 181.734375 C 103.324219 181.371094 103.589844 181.003906 103.847656 180.621094 C 104.371094 179.871094 104.863281 179.09375 105.320312 178.289062 C 105.425781 178.097656 105.53125 177.910156 105.636719 177.71875 C 107.742188 173.878906 109.121094 170.03125 109.773438 166.179688 C 109.984375 164.949219 110.117188 163.714844 110.179688 162.484375 C 110.246094 161.28125 110.230469 160.082031 110.152344 158.882812 Z M 110.152344 158.882812 " fill-opacity="1" fill-rule="evenodd"/><g clip-path="url(#c239322b1e)"><path fill="#cc0000" d="M 107.121094 127.226562 C 107.109375 127.433594 107.082031 127.640625 107.027344 127.835938 C 106.5 129.734375 105.4375 131.300781 103.785156 132.367188 C 102.269531 133.351562 100.582031 133.988281 98.578125 132.292969 C 98.441406 132.175781 98.304688 132.066406 98.164062 131.957031 C 97.605469 131.53125 97.011719 131.164062 96.394531 130.851562 C 94.785156 130.046875 92.996094 129.636719 91.136719 129.570312 C 90.867188 129.5625 90.605469 129.558594 90.339844 129.566406 C 90.214844 129.566406 90.085938 129.570312 89.957031 129.574219 C 89.84375 129.582031 89.726562 129.585938 89.613281 129.59375 C 89.492188 129.597656 89.367188 129.609375 89.246094 129.621094 C 89.164062 129.628906 89.085938 129.632812 89.003906 129.640625 C 88.835938 129.660156 88.664062 129.683594 88.492188 129.710938 C 88.441406 129.714844 88.386719 129.722656 88.332031 129.734375 C 88.160156 129.761719 87.992188 129.792969 87.824219 129.828125 C 87.78125 129.832031 87.738281 129.84375 87.695312 129.851562 C 87.539062 129.886719 87.382812 129.925781 87.230469 129.96875 C 87.144531 129.992188 87.0625 130.015625 86.980469 130.039062 C 86.863281 130.074219 86.75 130.109375 86.632812 130.148438 C 86.550781 130.175781 86.460938 130.203125 86.375 130.234375 C 86.222656 130.289062 86.074219 130.347656 85.925781 130.410156 C 85.898438 130.421875 85.871094 130.433594 85.847656 130.445312 C 85.6875 130.515625 85.527344 130.589844 85.371094 130.667969 C 85.359375 130.671875 85.347656 130.679688 85.335938 130.683594 C 85.277344 130.714844 85.226562 130.746094 85.167969 130.777344 C 85.042969 130.84375 84.925781 130.90625 84.804688 130.976562 C 84.769531 131 84.734375 131.023438 84.695312 131.046875 C 84.558594 131.132812 84.421875 131.222656 84.285156 131.316406 C 84.261719 131.332031 84.238281 131.347656 84.21875 131.359375 C 84.195312 131.375 84.179688 131.386719 84.160156 131.402344 C 84.015625 131.507812 83.875 131.617188 83.730469 131.730469 C 83.710938 131.746094 83.695312 131.761719 83.675781 131.777344 C 83.535156 131.890625 83.402344 132.015625 83.265625 132.140625 C 83.242188 132.160156 83.21875 132.183594 83.195312 132.203125 C 83.175781 132.222656 83.160156 132.242188 83.136719 132.261719 C 83.019531 132.375 82.90625 132.496094 82.789062 132.617188 C 82.734375 132.679688 82.679688 132.742188 82.621094 132.804688 C 82.523438 132.914062 82.429688 133.03125 82.335938 133.144531 C 82.285156 133.210938 82.230469 133.277344 82.179688 133.34375 C 82.0625 133.5 81.945312 133.65625 81.832031 133.820312 C 81.550781 134.238281 81.289062 134.671875 80.972656 135.191406 C 80.425781 134.03125 80.125 132.734375 80.125 131.371094 C 80.125 129.835938 80.507812 128.390625 81.179688 127.128906 C 81.183594 127.125 81.183594 127.125 81.183594 127.125 C 81.324219 126.925781 81.441406 126.710938 81.554688 126.492188 C 81.648438 126.304688 81.738281 126.121094 81.832031 125.941406 C 82.222656 125.183594 82.5 124.363281 82.957031 123.652344 C 83.179688 123.3125 83.75 122.9375 84.082031 123 C 84.285156 123.039062 84.453125 123.292969 84.601562 123.570312 C 84.691406 123.730469 84.777344 123.902344 84.859375 124.042969 C 84.980469 124.25 85.007812 124.503906 85.101562 124.820312 C 85.527344 124.015625 85.878906 123.371094 86.1875 122.84375 C 87.066406 121.347656 87.628906 120.769531 88.621094 120.085938 C 89.609375 119.410156 90.167969 119.644531 90.253906 120.84375 C 90.289062 121.34375 90.285156 121.851562 90.277344 122.414062 C 90.273438 122.765625 90.265625 123.144531 90.265625 123.554688 C 90.519531 123.199219 90.773438 122.863281 91.039062 122.542969 C 92.402344 120.871094 93.929688 119.632812 95.816406 118.820312 C 96.980469 118.316406 97.527344 118.613281 97.382812 119.855469 C 97.230469 121.167969 96.800781 122.4375 96.515625 123.640625 C 96.546875 123.625 96.652344 123.574219 96.765625 123.523438 C 98.355469 122.785156 99.933594 122.011719 101.546875 121.332031 C 102.773438 120.808594 103.375 121.238281 103.101562 122.535156 C 102.867188 123.636719 102.332031 124.679688 101.886719 125.730469 C 101.714844 126.144531 101.425781 126.503906 101.140625 126.972656 C 101.441406 127.003906 101.589844 127.050781 101.726562 127.03125 C 103.128906 126.804688 104.546875 126.625 105.929688 126.316406 C 106.957031 126.078125 107.183594 126.175781 107.121094 127.226562 Z M 107.121094 127.226562 " fill-opacity="1" fill-rule="evenodd"/></g><g fill="#ffba08" fill-opacity="0.4"><g transform="translate(115.080759, 200.788024)"><g><path d="M 13.265625 -32.890625 L 0.25 -32.890625 L 0.25 -42.390625 L 38.21875 -42.390625 L 38.21875 -32.890625 L 25.25 -32.890625 L 25.25 0 L 13.265625 0 Z M 13.265625 -32.890625 "/></g></g></g><g fill="#ffba08" fill-opacity="0.4"><g transform="translate(150.381534, 200.788024)"><g><path d="M 17.6875 -33.375 C 23.132812 -33.375 27.289062 -32.128906 30.15625 -29.640625 C 33.019531 -27.160156 34.453125 -23.359375 34.453125 -18.234375 L 34.453125 0 L 23.734375 0 L 23.734375 -4.234375 C 22.078125 -1.046875 18.847656 0.546875 14.046875 0.546875 C 11.503906 0.546875 9.300781 0.101562 7.4375 -0.78125 C 5.582031 -1.675781 4.179688 -2.878906 3.234375 -4.390625 C 2.285156 -5.898438 1.8125 -7.625 1.8125 -9.5625 C 1.8125 -12.675781 3.003906 -15.085938 5.390625 -16.796875 C 7.773438 -18.515625 11.445312 -19.375 16.40625 -19.375 L 22.953125 -19.375 C 22.753906 -22.851562 20.429688 -24.59375 15.984375 -24.59375 C 14.410156 -24.59375 12.816406 -24.335938 11.203125 -23.828125 C 9.585938 -23.328125 8.210938 -22.628906 7.078125 -21.734375 L 3.203125 -29.546875 C 5.023438 -30.765625 7.238281 -31.707031 9.84375 -32.375 C 12.445312 -33.039062 15.0625 -33.375 17.6875 -33.375 Z M 17.265625 -6.71875 C 18.597656 -6.71875 19.765625 -7.039062 20.765625 -7.6875 C 21.773438 -8.332031 22.503906 -9.28125 22.953125 -10.53125 L 22.953125 -13.390625 L 17.984375 -13.390625 C 14.628906 -13.390625 12.953125 -12.273438 12.953125 -10.046875 C 12.953125 -9.046875 13.335938 -8.238281 14.109375 -7.625 C 14.878906 -7.019531 15.929688 -6.71875 17.265625 -6.71875 Z M 17.265625 -6.71875 "/></g></g></g><g fill="#ffba08" fill-opacity="0.4"><g transform="translate(185.258454, 200.788024)"><g><path d="M 32.28125 -8.59375 L 32.28125 0 L 2 0 L 2 -6.78125 L 17.203125 -24.28125 L 2.421875 -24.28125 L 2.421875 -32.828125 L 31.671875 -32.828125 L 31.671875 -26.109375 L 16.46875 -8.59375 Z M 32.28125 -8.59375 "/></g></g></g><g fill="#ffba08" fill-opacity="0.4"><g transform="translate(215.775713, 200.788024)"><g><path d="M 17.6875 -33.375 C 23.132812 -33.375 27.289062 -32.128906 30.15625 -29.640625 C 33.019531 -27.160156 34.453125 -23.359375 34.453125 -18.234375 L 34.453125 0 L 23.734375 0 L 23.734375 -4.234375 C 22.078125 -1.046875 18.847656 0.546875 14.046875 0.546875 C 11.503906 0.546875 9.300781 0.101562 7.4375 -0.78125 C 5.582031 -1.675781 4.179688 -2.878906 3.234375 -4.390625 C 2.285156 -5.898438 1.8125 -7.625 1.8125 -9.5625 C 1.8125 -12.675781 3.003906 -15.085938 5.390625 -16.796875 C 7.773438 -18.515625 11.445312 -19.375 16.40625 -19.375 L 22.953125 -19.375 C 22.753906 -22.851562 20.429688 -24.59375 15.984375 -24.59375 C 14.410156 -24.59375 12.816406 -24.335938 11.203125 -23.828125 C 9.585938 -23.328125 8.210938 -22.628906 7.078125 -21.734375 L 3.203125 -29.546875 C 5.023438 -30.765625 7.238281 -31.707031 9.84375 -32.375 C 12.445312 -33.039062 15.0625 -33.375 17.6875 -33.375 Z M 17.265625 -6.71875 C 18.597656 -6.71875 19.765625 -7.039062 20.765625 -7.6875 C 21.773438 -8.332031 22.503906 -9.28125 22.953125 -10.53125 L 22.953125 -13.390625 L 17.984375 -13.390625 C 14.628906 -13.390625 12.953125 -12.273438 12.953125 -10.046875 C 12.953125 -9.046875 13.335938 -8.238281 14.109375 -7.625 C 14.878906 -7.019531 15.929688 -6.71875 17.265625 -6.71875 Z M 17.265625 -6.71875 "/></g></g></g><g fill="#cc0000" fill-opacity="1"><g transform="translate(115.080759, 200.788024)"><g><path d="M 13.265625 -32.890625 L 0.25 -32.890625 L 0.25 -42.390625 L 38.21875 -42.390625 L 38.21875 -32.890625 L 25.25 -32.890625 L 25.25 0 L 13.265625 0 Z M 13.265625 -32.890625 "/></g></g></g><g fill="#cc0000" fill-opacity="1"><g transform="translate(150.381534, 200.788024)"><g><path d="M 17.6875 -33.375 C 23.132812 -33.375 27.289062 -32.128906 30.15625 -29.640625 C 33.019531 -27.160156 34.453125 -23.359375 34.453125 -18.234375 L 34.453125 0 L 23.734375 0 L 23.734375 -4.234375 C 22.078125 -1.046875 18.847656 0.546875 14.046875 0.546875 C 11.503906 0.546875 9.300781 0.101562 7.4375 -0.78125 C 5.582031 -1.675781 4.179688 -2.878906 3.234375 -4.390625 C 2.285156 -5.898438 1.8125 -7.625 1.8125 -9.5625 C 1.8125 -12.675781 3.003906 -15.085938 5.390625 -16.796875 C 7.773438 -18.515625 11.445312 -19.375 16.40625 -19.375 L 22.953125 -19.375 C 22.753906 -22.851562 20.429688 -24.59375 15.984375 -24.59375 C 14.410156 -24.59375 12.816406 -24.335938 11.203125 -23.828125 C 9.585938 -23.328125 8.210938 -22.628906 7.078125 -21.734375 L 3.203125 -29.546875 C 5.023438 -30.765625 7.238281 -31.707031 9.84375 -32.375 C 12.445312 -33.039062 15.0625 -33.375 17.6875 -33.375 Z M 17.265625 -6.71875 C 18.597656 -6.71875 19.765625 -7.039062 20.765625 -7.6875 C 21.773438 -8.332031 22.503906 -9.28125 22.953125 -10.53125 L 22.953125 -13.390625 L 17.984375 -13.390625 C 14.628906 -13.390625 12.953125 -12.273438 12.953125 -10.046875 C 12.953125 -9.046875 13.335938 -8.238281 14.109375 -7.625 C 14.878906 -7.019531 15.929688 -6.71875 17.265625 -6.71875 Z M 17.265625 -6.71875 "/></g></g></g><g fill="#cc0000" fill-opacity="1"><g transform="translate(185.258454, 200.788024)"><g><path d="M 32.28125 -8.59375 L 32.28125 0 L 2 0 L 2 -6.78125 L 17.203125 -24.28125 L 2.421875 -24.28125 L 2.421875 -32.828125 L 31.671875 -32.828125 L 31.671875 -26.109375 L 16.46875 -8.59375 Z M 32.28125 -8.59375 "/></g></g></g><g fill="#cc0000" fill-opacity="1"><g transform="translate(215.775713, 200.788024)"><g><path d="M 17.6875 -33.375 C 23.132812 -33.375 27.289062 -32.128906 30.15625 -29.640625 C 33.019531 -27.160156 34.453125 -23.359375 34.453125 -18.234375 L 34.453125 0 L 23.734375 0 L 23.734375 -4.234375 C 22.078125 -1.046875 18.847656 0.546875 14.046875 0.546875 C 11.503906 0.546875 9.300781 0.101562 7.4375 -0.78125 C 5.582031 -1.675781 4.179688 -2.878906 3.234375 -4.390625 C 2.285156 -5.898438 1.8125 -7.625 1.8125 -9.5625 C 1.8125 -12.675781 3.003906 -15.085938 5.390625 -16.796875 C 7.773438 -18.515625 11.445312 -19.375 16.40625 -19.375 L 22.953125 -19.375 C 22.753906 -22.851562 20.429688 -24.59375 15.984375 -24.59375 C 14.410156 -24.59375 12.816406 -24.335938 11.203125 -23.828125 C 9.585938 -23.328125 8.210938 -22.628906 7.078125 -21.734375 L 3.203125 -29.546875 C 5.023438 -30.765625 7.238281 -31.707031 9.84375 -32.375 C 12.445312 -33.039062 15.0625 -33.375 17.6875 -33.375 Z M 17.265625 -6.71875 C 18.597656 -6.71875 19.765625 -7.039062 20.765625 -7.6875 C 21.773438 -8.332031 22.503906 -9.28125 22.953125 -10.53125 L 22.953125 -13.390625 L 17.984375 -13.390625 C 14.628906 -13.390625 12.953125 -12.273438 12.953125 -10.046875 C 12.953125 -9.046875 13.335938 -8.238281 14.109375 -7.625 C 14.878906 -7.019531 15.929688 -6.71875 17.265625 -6.71875 Z M 17.265625 -6.71875 "/></g></g></g></svg>